<?xml version="1.0" standalone="no"?>
<!DOCTYPE svg PUBLIC "-//W3C//DTD SVG 20010904//EN"
 "http://www.w3.org/TR/2001/REC-SVG-20010904/DTD/svg10.dtd">
<svg version="1.0" xmlns="http://www.w3.org/2000/svg"
 width="1024.000000pt" height="1024.000000pt" viewBox="0 0 1024.000000 1024.000000"
 preserveAspectRatio="xMidYMid meet">
<metadata>
Created by potrace 1.11, written by Peter Selinger 2001-2013
</metadata>
<g transform="translate(0.000000,1024.000000) scale(0.100000,-0.100000)"
fill="#000000" stroke="none">
<path d="M4730 10225 c-555 -50 -1009 -155 -1500 -348 -179 -71 -575 -266
-735 -362 -367 -222 -669 -457 -968 -753 -592 -585 -1012 -1263 -1270 -2047
-478 -1453 -281 -3034 542 -4340 391 -619 959 -1186 1586 -1582 228 -144 601
-334 840 -428 388 -153 828 -268 1217 -319 414 -55 942 -55 1356 0 389 51 829
166 1217 319 141 55 463 210 620 297 712 397 1365 1016 1806 1713 982 1552
1063 3507 212 5120 -97 183 -144 265 -221 385 -375 583 -888 1107 -1457 1488
-197 132 -327 207 -575 330 -625 312 -1211 472 -1953 532 -169 13 -536 11
-717 -5z m2390 -1876 c605 -69 1185 -413 1543 -912 213 -298 332 -635 356
-1007 9 -139 8 -178 -10 -340 -20 -179 -80 -397 -113 -411 -47 -19 -232 -41
-393 -46 -196 -6 -377 6 -628 43 -93 14 -187 28 -207 31 -33 5 -38 10 -42 37
-3 17 -7 47 -10 66 -3 19 -10 129 -16 244 -21 410 -77 598 -218 726 -65 60
-134 87 -260 101 -92 11 -105 10 -250 -20 -231 -47 -300 -87 -341 -200 -42
-114 -59 -480 -68 -1416 -9 -966 8 -1200 104 -1480 77 -222 168 -340 320 -413
76 -36 81 -37 188 -37 311 2 524 172 594 475 15 66 21 135 24 310 3 124 11
261 17 305 l12 80 377 3 c401 3 623 -7 738 -33 l71 -16 30 -117 c47 -179 65
-315 65 -502 0 -474 -162 -923 -464 -1285 -281 -336 -660 -559 -1070 -629
-232 -40 -776 -55 -964 -27 -422 62 -737 205 -974 440 -215 214 -317 445 -341
770 -33 450 -47 1857 -32 3116 11 870 4 802 98 1070 117 335 313 643 497 781
190 142 604 276 942 303 118 10 288 6 425 -10z m-4740 -270 c43 -6 80 -16 86
-25 25 -32 36 -190 64 -929 31 -805 119 -1708 225 -2315 67 -381 174 -870 186
-848 8 16 113 488 174 783 84 410 164 877 370 2150 37 226 85 502 106 615 46
233 117 541 129 554 5 5 54 1 117 -9 84 -14 201 -20 538 -25 364 -7 557 -18
611 -35 12 -4 3 -56 -102 -570 -241 -1179 -757 -3275 -1289 -5231 l-58 -211
-245 -18 c-355 -26 -744 -13 -952 31 -41 9 -78 19 -83 23 -23 22 -286 1069
-402 1606 -263 1213 -465 2549 -595 3935 -38 412 -38 415 -19 432 52 45 234
83 464 98 145 10 571 3 675 -11z"/>
</g>
</svg>
